<svg width="50" height="50" viewBox="0 0 50 50" fill="none" xmlns="http://www.w3.org/2000/svg">
<path d="M43.7501 23.9584L46.8751 27.0834L32.3126 41.6667L22.9167 32.2917L26.0417 29.1667L32.3126 35.4167L43.7501 23.9584Z" fill="#F8853E"/>
<path opacity="0.3" d="M35.4167 10.4166V16.6666H14.5834V10.4166H10.4167V39.5833H24.3334L17.0209 32.2916L26.0417 23.2708L32.3126 29.5208L39.5834 22.2291V10.4166H35.4167Z" fill="#F8853E"/>
<path d="M10.4167 39.5834V10.4167H14.5833V16.6667H35.4167V10.4167H39.5833V22.2292L43.75 18.0625V10.4167C43.75 8.12504 41.875 6.25004 39.5833 6.25004H30.875C30 3.83337 27.7083 2.08337 25 2.08337C22.2917 2.08337 20 3.83337 19.125 6.25004H10.4167C8.125 6.25004 6.25 8.12504 6.25 10.4167V39.5834C6.25 41.875 8.125 43.75 10.4167 43.75H28.5L24.3333 39.5834H10.4167ZM25 6.25004C26.1458 6.25004 27.0833 7.18754 27.0833 8.33337C27.0833 9.47921 26.1458 10.4167 25 10.4167C23.8542 10.4167 22.9167 9.47921 22.9167 8.33337C22.9167 7.18754 23.8542 6.25004 25 6.25004Z" fill="#F8853E"/>
</svg>
