<svg width="46" height="38" viewBox="0 0 46 38" fill="none" xmlns="http://www.w3.org/2000/svg">
<path d="M2.16663 30.4583C2.16663 28.5104 2.16663 27.5375 2.58538 26.8125C2.85964 26.3375 3.25411 25.943 3.72913 25.6688C4.45413 25.25 5.42704 25.25 7.37496 25.25C9.32288 25.25 10.2958 25.25 11.0208 25.6688C11.4958 25.943 11.8903 26.3375 12.1645 26.8125C12.5833 27.5375 12.5833 28.5104 12.5833 30.4583C12.5833 32.4063 12.5833 33.3792 12.1645 34.1042C11.8903 34.5792 11.4958 34.9737 11.0208 35.2479C10.2958 35.6667 9.32288 35.6667 7.37496 35.6667C5.42704 35.6667 4.45413 35.6667 3.72913 35.2479C3.25411 34.9737 2.85964 34.5792 2.58538 34.1042C2.16663 33.3792 2.16663 32.4063 2.16663 30.4583Z" stroke="#F8853E" stroke-width="4"/>
<path opacity="0.5" d="M17.7915 30.4583C17.7915 28.5104 17.7915 27.5375 18.2103 26.8125C18.4845 26.3375 18.879 25.943 19.354 25.6688C20.079 25.25 21.0519 25.25 22.9998 25.25C24.9478 25.25 25.9207 25.25 26.6457 25.6688C27.1207 25.943 27.5152 26.3375 27.7894 26.8125C28.2082 27.5375 28.2082 28.5104 28.2082 30.4583C28.2082 32.4063 28.2082 33.3792 27.7894 34.1042C27.5152 34.5792 27.1207 34.9737 26.6457 35.2479C25.9207 35.6667 24.9478 35.6667 22.9998 35.6667C21.0519 35.6667 20.079 35.6667 19.354 35.2479C18.879 34.9737 18.4845 34.5792 18.2103 34.1042C17.7915 33.3792 17.7915 32.4063 17.7915 30.4583Z" stroke="#F8853E" stroke-width="4"/>
<path opacity="0.7" d="M33.4165 30.4583C33.4165 28.5104 33.4165 27.5375 33.8353 26.8125C34.1095 26.3375 34.504 25.943 34.979 25.6688C35.704 25.25 36.6769 25.25 38.6248 25.25C40.5728 25.25 41.5457 25.25 42.2707 25.6688C42.7457 25.943 43.1402 26.3375 43.4144 26.8125C43.8332 27.5375 43.8332 28.5104 43.8332 30.4583C43.8332 32.4063 43.8332 33.3792 43.4144 34.1042C43.1402 34.5792 42.7457 34.9737 42.2707 35.2479C41.5457 35.6667 40.5728 35.6667 38.6248 35.6667C36.6769 35.6667 35.704 35.6667 34.979 35.2479C34.504 34.9737 34.1095 34.5792 33.8353 34.1042C33.4165 33.3792 33.4165 32.4063 33.4165 30.4583Z" stroke="#F8853E" stroke-width="4"/>
<path d="M7.375 25.25V12.75C7.375 7.83962 7.375 5.38337 8.9 3.85837C10.425 2.33337 12.8813 2.33337 17.7917 2.33337H28.2083C33.1188 2.33337 35.5729 2.33337 37.1 3.85837C38.6271 5.38337 38.625 7.83962 38.625 12.75V19M38.625 19L42.7917 14.8334M38.625 19L34.4583 14.8334" stroke="#F8853E" stroke-width="4" stroke-linecap="round" stroke-linejoin="round"/>
</svg>
