<svg width="44" height="48" viewBox="0 0 44 48" fill="none" xmlns="http://www.w3.org/2000/svg">
<path d="M30.3291 13.5834C30.3041 9.05217 30.1041 6.598 28.502 4.998C26.6729 3.16675 23.7249 3.16675 17.8333 3.16675H15.7499C9.85827 3.16675 6.91035 3.16675 5.08118 4.998C3.24994 6.82716 3.24994 9.77508 3.24994 15.6667V32.3334C3.24994 38.2251 3.24994 41.173 5.08118 43.0022C6.91035 44.8334 9.85827 44.8334 15.7499 44.8334H17.8333C23.7249 44.8334 26.6729 44.8334 28.502 43.0022C30.1041 41.4022 30.3041 38.948 30.3291 34.4168" stroke="#F8853E" stroke-width="5" stroke-linecap="round"/>
<path opacity="0.5" d="M30.3333 39.625C35.2437 39.625 37.7 39.625 39.225 38.1C40.75 36.5729 40.75 34.1187 40.75 29.2083V18.7917C40.75 13.8812 40.75 11.425 39.225 9.9C37.7 8.375 35.2437 8.375 30.3333 8.375" stroke="#F8853E" stroke-width="5"/>
<path d="M15.75 24.0002H34.5M34.5 24.0002L30.3333 28.1668M34.5 24.0002L30.3333 19.8335" stroke="#F8853E" stroke-width="5" stroke-linecap="round" stroke-linejoin="round"/>
</svg>
